<svg id="correct" xmlns="http://www.w3.org/2000/svg" width="24.416" height="24.416" viewBox="0 0 24.416 24.416">
  <path id="Path_493" data-name="Path 493" d="M22.43,14.946l.35,3.365-3.093,1.38L18.312,22.78l-3.365-.35-2.739,1.986L9.469,22.43,6.1,22.78l-1.38-3.093L1.636,18.312l.35-3.365L0,12.208,1.986,9.469,1.636,6.1l3.093-1.38L6.1,1.636l3.365.35L12.208,0l2.739,1.986,3.365-.35,1.38,3.093L22.78,6.1l-.35,3.365,1.986,2.739Zm0,0" fill="#60d65b"/>
  <path id="Path_494" data-name="Path 494" d="M135.59,156.113l-1.151-1.152-6.906,6.905-2.3-2.3-1.152,1.147,3.455,3.455Zm0,0" transform="translate(-117.767 -147.079)" fill="#fff"/>
</svg>
