<svg xmlns="http://www.w3.org/2000/svg" width="18.286" height="15.916" viewBox="0 0 18.286 15.916">
  <g id="Icon_ionic-ios-person-add" data-name="Icon ionic-ios-person-add" transform="translate(-4.501 -4.5)">
    <path id="Path_646" data-name="Path 646" d="M19.8,17.847c-.743-.228-1.8-.282-2.481-.414a2.7,2.7,0,0,1-1.148-.46,6.611,6.611,0,0,1-.081-1.956.389.389,0,0,1,.052-.158,5.878,5.878,0,0,0,.491-.829A8.387,8.387,0,0,0,17,12.649a.329.329,0,0,1,.19-.232.752.752,0,0,0,.371-.555c.148-.651.381-.9.352-1.389a.543.543,0,0,0-.152-.394.286.286,0,0,1-.1-.307,7.669,7.669,0,0,0,.248-1.89c.043-1.7-1.491-3.382-4.262-3.382-2.814,0-4.31,1.679-4.267,3.382a8,8,0,0,0,.243,1.89.3.3,0,0,1-.1.307.524.524,0,0,0-.152.394c-.029.485.2.738.352,1.389a.761.761,0,0,0,.371.555.337.337,0,0,1,.19.232,8.387,8.387,0,0,0,.362,1.38,6.1,6.1,0,0,0,.491.829.265.265,0,0,1,.052.158,6.6,6.6,0,0,1-.081,1.956,2.7,2.7,0,0,1-1.148.46c-.681.133-1.738.187-2.481.414-.676.207-2.634.85-2.976,2.168a.347.347,0,0,0,.376.4h17.52a.346.346,0,0,0,.371-.4C22.435,18.7,20.477,18.054,19.8,17.847Z" fill="#1c4798"/>
    <path id="Path_647" data-name="Path 647" d="M28.822,19.786H27.536V18.5a.5.5,0,0,0-.5-.5h0a.5.5,0,0,0-.5.5v1.286H25.25a.5.5,0,0,0-.5.5h0a.5.5,0,0,0,.5.5h1.286v1.286a.5.5,0,0,0,.5.5h0a.5.5,0,0,0,.5-.5V20.786h1.286a.5.5,0,0,0,.5-.5h0A.5.5,0,0,0,28.822,19.786Z" transform="translate(-6.535 -5.937)" fill="#1c4798"/>
  </g>
</svg>
