<svg id="_003-layers" data-name="003-layers" xmlns="http://www.w3.org/2000/svg" width="27" height="23.624" viewBox="0 0 27 23.624">
  <g id="Group_339" data-name="Group 339" transform="translate(0 0)">
    <g id="Group_338" data-name="Group 338">
      <path id="Path_629" data-name="Path 629" d="M26.7,38.821,13.76,32.071a.568.568,0,0,0-.521,0L.3,38.821a.562.562,0,0,0,0,1l12.937,6.75a.559.559,0,0,0,.52,0L26.7,39.818a.562.562,0,0,0,0-1Z" transform="translate(0 -32.008)" fill="#979a9d"/>
    </g>
  </g>
  <g id="Group_341" data-name="Group 341" transform="translate(0 10.196)">
    <g id="Group_340" data-name="Group 340">
      <path id="Path_630" data-name="Path 630" d="M26.7,226.474l-2.141-1.117L14.28,230.719a1.687,1.687,0,0,1-1.556,0l-10.28-5.364L.3,226.474a.562.562,0,0,0,0,1l12.937,6.75a.559.559,0,0,0,.52,0l12.937-6.75a.562.562,0,0,0,0-1Z" transform="translate(0 -225.357)" fill="#979a9d"/>
    </g>
  </g>
  <g id="Group_343" data-name="Group 343" transform="translate(0 14.696)">
    <g id="Group_342" data-name="Group 342">
      <path id="Path_631" data-name="Path 631" d="M26.7,311.808l-2.141-1.117L14.28,316.053a1.686,1.686,0,0,1-1.556,0l-10.28-5.364L.3,311.808a.562.562,0,0,0,0,1l12.937,6.75a.558.558,0,0,0,.52,0L26.7,312.8a.562.562,0,0,0,0-1Z" transform="translate(0 -310.691)" fill="#979a9d"/>
    </g>
  </g>
</svg>
