<svg xmlns="http://www.w3.org/2000/svg" width="17.802" height="17.802" viewBox="0 0 17.802 17.802">
  <path id="Icon_material-collections-bookmark" data-name="Icon material-collections-bookmark" d="M4.78,6.56H3V19.022A1.785,1.785,0,0,0,4.78,20.8H17.242v-1.78H4.78ZM19.022,3H8.341A1.785,1.785,0,0,0,6.56,4.78V15.462a1.785,1.785,0,0,0,1.78,1.78H19.022a1.785,1.785,0,0,0,1.78-1.78V4.78A1.785,1.785,0,0,0,19.022,3Zm0,8.9L16.8,10.566,14.571,11.9V4.78h4.451Z" transform="translate(-3 -3)" fill="#1c4798"/>
</svg>
