<svg xmlns="http://www.w3.org/2000/svg" width="11.451" height="9.645" viewBox="0 0 11.451 9.645">
  <path id="Icon_awesome-angle-double-down" data-name="Icon awesome-angle-double-down" d="M5.114,8.819.249,5.528a.46.46,0,0,1,0-.82l.808-.547a1.163,1.163,0,0,1,1.213,0L5.718,6.494,9.167,4.161a1.163,1.163,0,0,1,1.213,0l.816.544a.46.46,0,0,1,0,.82L6.33,8.817A1.164,1.164,0,0,1,5.114,8.819ZM6.33,13.465,11.2,10.174a.46.46,0,0,0,0-.82l-.808-.547a1.163,1.163,0,0,0-1.213,0l-3.452,2.33L2.273,8.8a1.163,1.163,0,0,0-1.213,0l-.812.547a.46.46,0,0,0,0,.82l4.865,3.291A1.164,1.164,0,0,0,6.33,13.465Z" transform="translate(0.004 -3.99)" fill="#343a40"/>
</svg>
