<svg xmlns="http://www.w3.org/2000/svg" width="18.571" height="20.634" viewBox="0 0 18.571 20.634">
  <path id="Icon_material-date-range" data-name="Icon material-date-range" d="M10.69,12.286H8.627v2.063H10.69Zm4.127,0H12.754v2.063h2.063Zm4.127,0H16.881v2.063h2.063Zm2.063-7.222H19.976V3H17.912V5.063H9.659V3H7.6V5.063H6.563A2.054,2.054,0,0,0,4.51,7.127L4.5,21.571a2.063,2.063,0,0,0,2.063,2.063H21.008a2.07,2.07,0,0,0,2.063-2.063V7.127A2.07,2.07,0,0,0,21.008,5.063Zm0,16.508H6.563V10.222H21.008Z" transform="translate(-4.5 -3)" fill="#1c4798"/>
</svg>
