<svg xmlns="http://www.w3.org/2000/svg" width="27" height="7" viewBox="0 0 27 7">
  <path id="Union_7" data-name="Union 7" d="M0,23.727a3.393,3.393,0,0,1,3.5-3.271A3.393,3.393,0,0,1,7,23.727,3.393,3.393,0,0,1,3.5,27,3.393,3.393,0,0,1,0,23.727Zm0-9.819a3.391,3.391,0,0,1,3.5-3.27A3.391,3.391,0,0,1,7,13.908a3.393,3.393,0,0,1-3.5,3.274A3.392,3.392,0,0,1,0,13.908ZM0,3.273A3.393,3.393,0,0,1,3.5,0,3.393,3.393,0,0,1,7,3.273,3.393,3.393,0,0,1,3.5,6.547,3.392,3.392,0,0,1,0,3.273Z" transform="translate(27) rotate(90)" fill="#1c4798"/>
</svg>
