<svg xmlns="http://www.w3.org/2000/svg" width="27" height="27" viewBox="0 0 27 27">
  <path id="Icon_ionic-md-help-circle" data-name="Icon ionic-md-help-circle" d="M16.875,3.375a13.5,13.5,0,1,0,13.5,13.5A13.506,13.506,0,0,0,16.875,3.375Zm1.363,21.613H15.512V22.262h2.726ZM18.225,20.9h-2.7c0-4.349,4.05-4.037,4.05-6.737a2.712,2.712,0,0,0-2.7-2.706,2.739,2.739,0,0,0-2.7,2.694h-2.7a5.4,5.4,0,0,1,10.8.006C22.275,17.531,18.225,17.913,18.225,20.9Z" transform="translate(-3.375 -3.375)" fill="#979a9d"/>
</svg>
