<svg id="LOGO_ON_NAV" data-name="LOGO ON NAV" xmlns="http://www.w3.org/2000/svg" width="134.232" height="28.422" viewBox="0 0 134.232 28.422">
  <g id="LOGO_ICON" data-name="LOGO ICON">
    <path id="Path_198" data-name="Path 198" d="M56.143,307.286l-9.474,9.474v-5.751c0-.044,0-.089,0-.133a3.759,3.759,0,0,1,3.778-3.59Z" transform="translate(-46.669 -307.286)" fill="#1c4798"/>
    <path id="Path_199" data-name="Path 199" d="M56.143,354.893l-9.474-9.474v5.751c0,.045,0,.089,0,.134a3.758,3.758,0,0,0,3.778,3.59Z" transform="translate(-46.669 -326.597)" fill="#1c4798"/>
    <path id="Path_200" data-name="Path 200" d="M69.489,338.525A7.114,7.114,0,0,1,62.1,340.2l-.007,0A2.912,2.912,0,0,1,61,339.515L49.927,328.437a2.887,2.887,0,0,1-.858-2.028v-.029a2.889,2.889,0,0,1,.858-2.027l7.432-7.4a7.081,7.081,0,0,0-1.776,4.7c0,.116,0,.233.009.348a7.074,7.074,0,0,0,1.768,4.353l.019.018,9.455,9.492Z" transform="translate(-47.884 -312.184)" fill="#1c4798"/>
    <path id="Path_201" data-name="Path 201" d="M76.171,309.367,64.059,321.479l-.019-.018a7.073,7.073,0,0,1-1.768-4.353c-.006-.115-.009-.231-.009-.348a7.081,7.081,0,0,1,1.776-4.7l.691-.728L67.66,308.4a2.989,2.989,0,0,1,1.11-.71l.007,0a7.1,7.1,0,0,1,7.393,1.676Z" transform="translate(-54.566 -307.286)" fill="#1c4798"/>
  </g>
  <path id="Path_202" data-name="Path 202" d="M102.171,320.154h2.379V334.5h-2.379Zm13.236,14.124v.227h-2.813l-7.534-7.232v-.227l7.421-6.892h2.644v.227l-7.194,6.685Z" transform="translate(-70.157 -313.075)" fill="#1c4798"/>
  <path id="Path_203" data-name="Path 203" d="M131.8,327.1c0-4.419,3.1-7.364,7.723-7.364,4.645,0,7.723,2.946,7.723,7.364s-3.078,7.364-7.723,7.364C134.9,334.461,131.8,331.516,131.8,327.1Zm12.972,0a5.249,5.249,0,1,0-5.249,5.249A4.965,4.965,0,0,0,144.775,327.1Z" transform="translate(-86.516 -312.842)" fill="#1c4798"/>
  <path id="Path_204" data-name="Path 204" d="M183.095,320.154v.227l-7.8,14.5h-.246l-7.8-14.5v-.227h2.53l5.4,10.31,5.381-10.31Z" transform="translate(-106.088 -313.075)" fill="#1c4798"/>
  <path id="Path_205" data-name="Path 205" d="M216.984,333.813v.227h-2.53l-1.6-3.078h-7.572l-1.6,3.078h-2.531v-.227l7.8-14.5h.246Zm-5.211-4.891-2.7-5.193-2.719,5.193Z" transform="translate(-124.798 -312.609)" fill="#1c4798"/>
  <path id="Path_206" data-name="Path 206" d="M245.671,322.193h-5.532V334.5h-2.38V322.193h-5.551v-2.039h13.463Z" transform="translate(-141.949 -313.075)" fill="#1c4798"/>
  <path id="Path_207" data-name="Path 207" d="M279.327,332.466V334.5H267.11V320.154h12.009v2.039h-9.63v3.928h9.026v2.039h-9.026v4.3Z" transform="translate(-161.219 -313.075)" fill="#1c4798"/>
  <path id="Path_208" data-name="Path 208" d="M300.831,320.154h2.379V334.5h-2.379Zm13.237,14.124v.227h-2.813l-7.534-7.232v-.227l7.421-6.892h2.644v.227l-7.195,6.685Z" transform="translate(-179.836 -313.075)" fill="#1c4798"/>
</svg>
