<svg xmlns="http://www.w3.org/2000/svg" width="25.49" height="16.386" viewBox="0 0 25.49 16.386">
  <path id="Icon_ionic-md-people" data-name="Icon ionic-md-people" d="M19.629,14.7a3.414,3.414,0,1,0-3.476-3.414A3.456,3.456,0,0,0,19.629,14.7Zm-9.269,0a3.414,3.414,0,1,0-3.476-3.414A3.455,3.455,0,0,0,10.36,14.7Zm0,2.5c-2.723,0-8.11,1.309-8.11,3.983v3.072H18.636V21.189C18.636,18.515,13.083,17.206,10.36,17.206Zm9.269.626a6.183,6.183,0,0,0-.993.057c1.333.967,1.821,1.593,1.821,3.3v3.072H27.74V21.189C27.74,18.515,22.352,17.832,19.629,17.832Z" transform="translate(-2.25 -7.875)" fill="#1c4798"/>
</svg>
