<svg xmlns="http://www.w3.org/2000/svg" width="34.48" height="20.002" viewBox="0 0 34.48 20.002">
  <path id="Union_48" data-name="Union 48" d="M-17085.93,22770a2.068,2.068,0,0,1-2.068-2.068,2.068,2.068,0,0,1,2.068-2.07h14.338a2.073,2.073,0,0,1,2.074,2.07,2.073,2.073,0,0,1-2.074,2.068Zm0-8.275a2.073,2.073,0,0,1-2.068-2.074,2.068,2.068,0,0,1,2.068-2.068h22.338a2.073,2.073,0,0,1,2.074,2.068,2.078,2.078,0,0,1-2.074,2.074Zm0-7.588a2.068,2.068,0,0,1-2.068-2.07,2.068,2.068,0,0,1,2.068-2.068h30.344a2.068,2.068,0,0,1,2.068,2.068,2.068,2.068,0,0,1-2.068,2.07Z" transform="translate(17087.998 -22750)" fill="#1c4798"/>
</svg>
