<svg id="_002-milestone" data-name="002-milestone" xmlns="http://www.w3.org/2000/svg" width="29.875" height="29.837" viewBox="0 0 29.875 29.837">
  <path id="Path_625" data-name="Path 625" d="M61.677,189.29a.875.875,0,0,1,1.009-.009l2.546,1.762,1.082-1.078-3.51-3.51a.875.875,0,0,0-1.238,0l-3.5,3.5,1.358.957Z" transform="translate(-54.679 -175.352)" fill="#979a9d"/>
  <path id="Path_626" data-name="Path 626" d="M7.519,269.729l-2.256,1.623a.875.875,0,0,1-1.015.005l-2.116-1.491L.256,271.742a.875.875,0,0,0-.256.619v7.858l9.293-9.263Z" transform="translate(0 -254.01)" fill="#979a9d"/>
  <path id="Path_627" data-name="Path 627" d="M283.56,12.119a.875.875,0,0,1,1.008,0l2.312,1.629,1.522-1.072-3.487-3.487V6.361l4.366-1.839a.875.875,0,0,0-.054-1.634L284.916,1.4V1.2a.875.875,0,1,0-1.75,0v8L279.7,12.658l1.546,1.089Z" transform="translate(-263.382 -0.327)" fill="#979a9d"/>
  <path id="Path_628" data-name="Path 628" d="M29.912,236.391l-3.341-3.341-2.274,1.6a.875.875,0,0,1-1.008,0l-2.312-1.629-2.312,1.629a.875.875,0,0,1-1.008,0l-2.3-1.621L.569,247.768a.875.875,0,0,0,.617,1.5l28.106.018h0a.875.875,0,0,0,.875-.875v-11.4A.875.875,0,0,0,29.912,236.391Z" transform="translate(-0.293 -219.444)" fill="#979a9d"/>
</svg>
