<svg id="_002-milestone" data-name="002-milestone" xmlns="http://www.w3.org/2000/svg" width="19.32" height="19.295" viewBox="0 0 19.32 19.295">
  <path id="Path_625" data-name="Path 625" d="M60.4,188.2a.566.566,0,0,1,.653-.006l1.646,1.139.7-.7-2.27-2.27a.566.566,0,0,0-.8,0l-2.263,2.263.878.619Z" transform="translate(-55.876 -179.184)" fill="#1c4798"/>
  <path id="Path_626" data-name="Path 626" d="M4.862,269.729,3.4,270.779a.566.566,0,0,1-.656,0l-1.368-.964L.166,271.031a.566.566,0,0,0-.166.4v5.082l6.009-5.99Z" transform="translate(0 -259.564)" fill="#1c4798"/>
  <path id="Path_627" data-name="Path 627" d="M282.2,7.952a.566.566,0,0,1,.652,0l1.5,1.053.984-.693-2.255-2.255V4.229L285.9,3.04a.566.566,0,0,0-.035-1.057l-2.788-.963V.893a.566.566,0,1,0-1.132,0V6.069L279.7,8.3l1,.7Z" transform="translate(-269.148 -0.327)" fill="#1c4798"/>
  <path id="Path_628" data-name="Path 628" d="M19.454,235.2l-2.161-2.161-1.47,1.036a.566.566,0,0,1-.652,0l-1.5-1.053-1.5,1.053a.566.566,0,0,1-.652,0l-1.488-1.048L.478,242.558a.566.566,0,0,0,.4.967l18.176.011h0a.566.566,0,0,0,.566-.566V235.6A.566.566,0,0,0,19.454,235.2Z" transform="translate(-0.3 -224.242)" fill="#1c4798"/>
</svg>
