<svg xmlns="http://www.w3.org/2000/svg" width="11.682" height="14.013" viewBox="0 0 11.682 14.013">
  <path id="Icon_ionic-ios-flag" data-name="Icon ionic-ios-flag" d="M18.088,5.113c-.113.018-.234.036-.361.051a21.512,21.512,0,0,1-2.211.19,13.428,13.428,0,0,1-2.854-.445A13.977,13.977,0,0,0,9.721,4.5,5.39,5.39,0,0,0,6.9,4.989l-.15.106V17.988a.521.521,0,0,0,.449.522A.511.511,0,0,0,7.772,18V12.368a.3.3,0,0,1,.234-.288,8.855,8.855,0,0,1,1.715-.142,13.669,13.669,0,0,1,2.8.566,12.866,12.866,0,0,0,3.044.42,17.3,17.3,0,0,0,2.62-.241.294.294,0,0,0,.252-.288V5.4A.3.3,0,0,0,18.088,5.113Z" transform="translate(-6.75 -4.5)" fill="#1c4798"/>
</svg>
