<svg id="_001-speedometer" data-name="001-speedometer" xmlns="http://www.w3.org/2000/svg" width="29.875" height="22.818" viewBox="0 0 29.875 22.818">
  <path id="Path_619" data-name="Path 619" d="M94.952,0A14.811,14.811,0,0,0,85.9,3.749L89.64,7.486a7.877,7.877,0,0,1,5.313.02Zm0,0" transform="translate(-80.89)" fill="#979a9d"/>
  <path id="Path_620" data-name="Path 620" d="M272.647,9.911l7.07-6.45A14.8,14.8,0,0,0,271,0V8.4A7.94,7.94,0,0,1,272.647,9.911Zm0,0" transform="translate(-255.187)" fill="#979a9d"/>
  <path id="Path_621" data-name="Path 621" d="M0,95.382v.875H3.5v-.875a7.877,7.877,0,0,1,3.592-6.607L3.775,85.457A14.828,14.828,0,0,0,0,95.382Zm0,0" transform="translate(0 -80.471)" fill="#979a9d"/>
  <path id="Path_622" data-name="Path 622" d="M432.453,196.356h4.642v-.875a15.033,15.033,0,0,0-.466-3.723Zm0,0" transform="translate(-407.22 -180.569)" fill="#979a9d"/>
  <path id="Path_623" data-name="Path 623" d="M199.523,271.059A3.5,3.5,0,1,0,202,272.084,3.479,3.479,0,0,0,199.523,271.059Zm0,0" transform="translate(-184.586 -255.242)" fill="#979a9d"/>
  <path id="Path_624" data-name="Path 624" d="M275.858,74.555,265.18,84.3a5.245,5.245,0,0,1,4.684,4.68l9.718-10.7V74.555Zm0,0" transform="translate(-249.707 -70.204)" fill="#979a9d"/>
</svg>
