<svg xmlns="http://www.w3.org/2000/svg" width="9.24" height="13.615" viewBox="0 0 9.24 13.615">
  <path id="Icon_metro-pin" data-name="Icon metro-pin" d="M16.709,13.954l-4.544-2.624A1.166,1.166,0,1,0,11,13.35l4.543,2.624a1.166,1.166,0,0,0,1.167-2.019Zm-3.748-2.837L16.5,13.158l1.2-3.345L15.257,8.4Zm-2.606,8.594L13.737,15.6l-1.515-.875-1.866,4.981Zm8.8-11.748L16.13,6.214a.875.875,0,1,0-.875,1.515l3.029,1.749a.874.874,0,1,0,.874-1.515Z" transform="translate(-10.356 -6.096)" fill="#343a40"/>
</svg>
