<svg xmlns="http://www.w3.org/2000/svg" width="18.633" height="17.888" viewBox="0 0 18.633 17.888">
  <path id="best" d="M23.582,26.058a2.4,2.4,0,0,0,.882-2.729L23.4,20.068l2.795-2.017a2.453,2.453,0,0,0,.894-2.753,2.418,2.418,0,0,0-2.332-1.706H21.279l-1.057-3.254a2.454,2.454,0,0,0-4.663,0L14.5,13.592H11.027A2.418,2.418,0,0,0,8.7,15.3a2.453,2.453,0,0,0,.894,2.753l2.795,2.017-1.066,3.261a2.45,2.45,0,0,0,3.769,2.737l2.8-2.024,2.8,2.024a2.421,2.421,0,0,0,2.888-.008Zm-9.057-9.965a2.429,2.429,0,0,0,2.332-1.653l1.034-3.181,1.034,3.183a2.429,2.429,0,0,0,2.331,1.651H24.63L21.9,18.065a2.432,2.432,0,0,0-.893,2.737l1.029,3.146L19.328,22a2.458,2.458,0,0,0-2.876,0l-2.706,1.953L14.776,20.8a2.433,2.433,0,0,0-.893-2.737l-2.731-1.972Zm10.233,0h0Zm0,0" transform="translate(-8.574 -8.652)" fill="#4bb38e"/>
</svg>
