<svg xmlns="http://www.w3.org/2000/svg" width="10.58" height="12.692" viewBox="0 0 10.58 12.692">
  <path id="Icon_ionic-ios-flag" data-name="Icon ionic-ios-flag" d="M17.019,5.055c-.1.017-.212.033-.327.046a19.484,19.484,0,0,1-2,.172,12.162,12.162,0,0,1-2.585-.4A12.659,12.659,0,0,0,9.44,4.5a4.881,4.881,0,0,0-2.555.443l-.136.1V16.716a.472.472,0,0,0,.407.473.463.463,0,0,0,.519-.459v-5.1a.269.269,0,0,1,.212-.261,8.02,8.02,0,0,1,1.553-.129,12.38,12.38,0,0,1,2.532.512,11.653,11.653,0,0,0,2.757.38A15.67,15.67,0,0,0,17.1,11.91a.266.266,0,0,0,.228-.261V5.316A.269.269,0,0,0,17.019,5.055Z" transform="translate(-6.75 -4.5)" fill="#343a40"/>
</svg>
