<svg id="_001-account" data-name="001-account" xmlns="http://www.w3.org/2000/svg" width="43.423" height="43.423" viewBox="0 0 43.423 43.423">
  <path id="Path_495" data-name="Path 495" d="M39.275,34.475a21.711,21.711,0,1,0-35.13,0A21.724,21.724,0,0,1,39.275,34.475Zm-25.2-21.669a7.633,7.633,0,0,1,15.266,0V15.35a7.633,7.633,0,0,1-15.266,0Zm0,0" fill="#1c4798"/>
  <path id="Path_496" data-name="Path 496" d="M201.089,103.717a5.094,5.094,0,0,0,5.089-5.088V96.084a5.089,5.089,0,0,0-10.177,0v2.544A5.094,5.094,0,0,0,201.089,103.717Zm0,0" transform="translate(-179.377 -83.279)" fill="#1c4798"/>
  <path id="Path_497" data-name="Path 497" d="M68.758,339.527a21.7,21.7,0,0,0,31.766-.006A19.178,19.178,0,0,0,68.758,339.527Zm0,0" transform="translate(-62.926 -303.014)" fill="#1c4798"/>
</svg>
